<svg width="100%" viewBox="0 0 460 420" xmlns="http://www.w3.org/2000/svg" role="img"><title>Cartoon dragon</title><desc>Cute cartoon dragon illustration</desc>
<path d="M150 175 Q60 130 50 230 Q40 320 130 295 Q90 245 150 175Z" fill="#6FA8DC" stroke="#4A86C8" stroke-width="3" stroke-linejoin="round"/>
<path d="M310 175 Q400 130 410 230 Q420 320 330 295 Q370 245 310 175Z" fill="#6FA8DC" stroke="#4A86C8" stroke-width="3" stroke-linejoin="round"/>
<path d="M160 215 L110 215 M160 245 L120 255" stroke="#4A86C8" stroke-width="2" fill="none" stroke-linecap="round"/>
<path d="M300 215 L350 215 M300 245 L340 255" stroke="#4A86C8" stroke-width="2" fill="none" stroke-linecap="round"/>
<ellipse cx="230" cy="280" rx="100" ry="100" fill="#6FA8DC" stroke="#4A86C8" stroke-width="3"/>
<ellipse cx="230" cy="310" rx="60" ry="60" fill="#C2DDF2"/>
<circle cx="230" cy="150" r="70" fill="#6FA8DC" stroke="#4A86C8" stroke-width="3"/>
<path d="M180 92 L194 55 L214 96 Z" fill="#F0D060" stroke="#4A86C8" stroke-width="2"/>
<path d="M280 92 L266 55 L246 96 Z" fill="#F0D060" stroke="#4A86C8" stroke-width="2"/>
<circle cx="208" cy="145" r="15" fill="white" stroke="#4A86C8" stroke-width="2"/>
<circle cx="252" cy="145" r="15" fill="white" stroke="#4A86C8" stroke-width="2"/>
<circle cx="211" cy="148" r="6" fill="#333"/>
<circle cx="255" cy="148" r="6" fill="#333"/>
<circle cx="190" cy="167" r="11" fill="#F4A6A6" opacity="0.6"/>
<circle cx="270" cy="167" r="11" fill="#F4A6A6" opacity="0.6"/>
<path d="M218 182 Q230 194 242 182" fill="none" stroke="#4A86C8" stroke-width="3" stroke-linecap="round"/>
<ellipse cx="145" cy="310" rx="28" ry="50" fill="#6FA8DC" stroke="#4A86C8" stroke-width="3" transform="rotate(-15 145 310)"/>
<ellipse cx="315" cy="310" rx="28" ry="50" fill="#6FA8DC" stroke="#4A86C8" stroke-width="3" transform="rotate(15 315 310)"/>
<path d="M320 355 Q390 380 378 325 Q405 350 392 290" fill="#6FA8DC" stroke="#4A86C8" stroke-width="3" stroke-linejoin="round"/>
</svg>